<svg xmlns="http://www.w3.org/2000/svg" xmlns:xlink="http://www.w3.org/1999/xlink" width="500" zoomAndPan="magnify" viewBox="0 0 375 374.999991" height="500" preserveAspectRatio="xMidYMid meet" version="1.0"><defs><clipPath id="486a8c98a6"><path d="M 32 115.078125 L 66 115.078125 L 66 241 L 32 241 Z M 32 115.078125 " clip-rule="nonzero"/></clipPath><clipPath id="fcd75ce833"><path d="M 0 115.078125 L 34 115.078125 L 34 243 L 0 243 Z M 0 115.078125 " clip-rule="nonzero"/></clipPath><clipPath id="5c8617f3a2"><path d="M 30 223 L 39 223 L 39 259.828125 L 30 259.828125 Z M 30 223 " clip-rule="nonzero"/></clipPath></defs><g clip-path="url(#486a8c98a6)"><path fill="#599636" d="M 32.390625 115.628906 L 36.25 122.882812 C 37.09375 124.195312 38.066406 125.40625 39.167969 126.507812 C 42.402344 129.738281 45.476562 133.125 48.234375 136.753906 C 54.777344 145.339844 59.191406 154.878906 62.347656 165.203125 C 64.238281 171.511719 65.265625 177.972656 65.34375 184.511719 C 65.664062 204.058594 58.957031 220.839844 45.394531 234.792969 C 43.191406 237.007812 40.828125 239.03125 38.296875 240.859375 C 36.949219 240.859375 36.324219 239.796875 35.773438 238.890625 C 34.710938 237.121094 34.113281 235.183594 33.800781 233.214844 C 33.324219 230.851562 33.011719 228.488281 33.167969 226.042969 L 33.167969 224.9375 C 33.089844 224.703125 31.910156 116.183594 32.378906 115.632812 Z M 32.390625 115.628906 " fill-opacity="1" fill-rule="nonzero"/></g><g clip-path="url(#fcd75ce833)"><path fill="#6cac48" d="M 32.390625 115.394531 C 32.230469 115.078125 32.070312 115.320312 31.914062 115.472656 C 31.992188 117.050781 31.441406 118.46875 30.570312 119.808594 C 29.625 121.152344 28.359375 122.171875 27.101562 123.277344 C 20.082031 129.347656 14.5625 136.675781 10.144531 144.871094 C 4.308594 155.90625 1.234375 167.722656 0.371094 180.175781 C -0.0195312 184.671875 1.789062 200.511719 3.210938 205.078125 C 7.070312 217.21875 14.011719 227.382812 23.042969 236.207031 C 25.25 238.332031 27.617188 240.304688 30.058594 242.195312 C 30.769531 242.195312 30.851562 241.566406 31.003906 241.089844 C 31.316406 240.082031 31.554688 239.058594 31.714844 238.015625 C 32.421875 234.078125 32.820312 230.132812 33.289062 226.195312 L 32.421875 115.394531 Z M 32.390625 115.394531 " fill-opacity="1" fill-rule="nonzero"/></g><g clip-path="url(#5c8617f3a2)"><path fill="#c2bfbf" d="M 36.261719 245.667969 C 36.421875 243.855469 37.324219 242.355469 38.234375 240.859375 C 37.289062 240.472656 36.574219 239.679688 36.023438 238.808594 C 35.550781 238.019531 35.15625 237.039062 34.839844 236.207031 C 33.734375 232.898438 33.496094 229.429688 33.183594 226.039062 L 33.183594 223.988281 C 32.792969 224.304688 32.707031 226.980469 32.707031 227.378906 C 32.472656 231 32 234.550781 31.292969 238.015625 C 31.054688 239.429688 30.902344 240.851562 30.03125 242.113281 C 30.03125 242.273438 30.03125 242.433594 30.109375 242.664062 C 31.527344 246.839844 31.921875 251.097656 32.164062 255.433594 L 32.164062 257.007812 C 32.164062 258.898438 32.085938 258.503906 33.660156 259.132812 C 34.292969 259.367188 35.007812 259.449219 35.632812 259.921875 C 36.109375 259.921875 36.1875 259.53125 36.1875 259.210938 L 35.949219 256.613281 L 35.949219 249.355469 C 35.871094 248.097656 36.109375 246.832031 36.269531 245.652344 Z M 36.261719 245.667969 " fill-opacity="1" fill-rule="nonzero"/></g><path fill="#47474a" d="M 96.140625 212.703125 L 96.140625 220.210938 C 96.132812 220.507812 96.148438 220.804688 96.191406 221.097656 C 96.289062 221.988281 96.832031 222.53125 97.636719 222.777344 C 98.386719 222.976562 99.144531 223.125 99.914062 223.222656 C 100.359375 223.273438 100.507812 223.46875 100.558594 223.945312 C 100.609375 225.625 100.460938 225.824219 98.828125 225.722656 C 95.027344 225.523438 91.21875 225.476562 87.414062 225.722656 L 87.054688 225.722656 C 85.867188 225.773438 85.769531 225.671875 85.769531 224.488281 C 85.769531 224.289062 85.820312 224.042969 85.820312 223.84375 C 85.820312 223.484375 86.066406 223.300781 86.414062 223.300781 C 87.207031 223.207031 87.945312 223.007812 88.691406 222.859375 C 89.730469 222.613281 90.316406 221.96875 90.417969 220.933594 C 90.5625 219.796875 90.5625 218.613281 90.5625 217.472656 L 90.613281 204.242188 C 90.632812 203.851562 90.542969 203.484375 90.34375 203.144531 C 90.148438 202.804688 89.878906 202.542969 89.53125 202.363281 C 88.632812 201.863281 87.691406 201.46875 86.710938 201.175781 C 86.414062 201.078125 86.117188 201.03125 85.871094 200.882812 C 85.148438 200.535156 85.128906 199.894531 85.820312 199.496094 C 86.066406 199.351562 86.363281 199.25 86.660156 199.199219 C 89.664062 198.757812 92.597656 198.015625 95.453125 196.980469 C 96.046875 196.78125 96.195312 196.835938 96.246094 197.421875 C 96.296875 197.785156 96.246094 198.21875 96.199219 198.558594 C 96.101562 199.199219 96.101562 199.839844 96.101562 200.4375 C 96.101562 200.683594 96.152344 200.933594 96.394531 201.078125 C 96.640625 201.226562 96.890625 201.078125 97.121094 200.933594 C 98.15625 200.140625 99.195312 199.402344 100.332031 198.765625 C 101.957031 197.878906 103.691406 197.085938 105.574219 196.839844 C 107.851562 196.546875 109.820312 197.136719 111.554688 198.621094 C 112.273438 199.261719 112.898438 199.984375 113.429688 200.789062 C 113.925781 201.511719 113.972656 201.53125 114.617188 201.035156 C 116.496094 199.652344 118.472656 198.421875 120.597656 197.53125 C 122.820312 196.59375 125.09375 196.449219 127.367188 197.234375 C 129.6875 198.074219 131.269531 199.703125 132.210938 201.925781 C 133.007812 203.703125 133.347656 205.539062 133.347656 207.453125 L 133.347656 220.6875 C 133.347656 221.574219 133.707031 222.132812 134.582031 222.566406 C 135.523438 222.925781 136.558594 223.109375 137.546875 223.304688 C 138.191406 223.449219 138.191406 223.449219 138.191406 224.101562 C 138.09375 225.726562 137.945312 225.828125 136.363281 225.726562 C 132.394531 225.503906 128.421875 225.503906 124.453125 225.726562 C 123.660156 225.777344 123.660156 225.777344 123.617188 224.988281 L 123.617188 224.742188 C 123.566406 223.402344 123.566406 223.402344 124.851562 223.113281 L 126.136719 222.769531 C 126.582031 222.664062 126.949219 222.429688 127.238281 222.070312 C 127.523438 221.710938 127.667969 221.300781 127.667969 220.84375 L 127.8125 217.136719 L 127.714844 207.460938 C 127.679688 206.589844 127.496094 205.75 127.175781 204.941406 C 125.9375 201.929688 123.222656 200.84375 120.601562 201.140625 C 118.621094 201.339844 116.894531 202.128906 115.261719 203.265625 C 114.917969 203.511719 114.671875 203.808594 114.722656 204.304688 C 115.164062 207.464844 114.867188 210.625 114.921875 213.785156 L 114.921875 220.648438 C 114.921875 221.886719 115.414062 222.480469 116.601562 222.773438 L 118.878906 223.269531 C 119.226562 223.320312 119.421875 223.46875 119.421875 223.863281 L 119.421875 224.222656 C 119.371094 225.609375 119.277344 225.667969 117.886719 225.65625 C 113.9375 225.457031 109.980469 225.511719 106.078125 225.65625 C 104.742188 225.707031 104.632812 225.558594 104.695312 224.210938 C 104.746094 223.414062 104.839844 223.371094 105.585938 223.222656 L 107.210938 222.925781 C 108.65625 222.628906 109.1875 222.089844 109.285156 220.554688 L 109.429688 217.246094 L 109.332031 207.320312 C 109.234375 206.085938 108.972656 204.898438 108.296875 203.765625 C 107.308594 201.9375 105.765625 201 103.648438 200.898438 C 101.523438 200.753906 99.648438 201.542969 97.863281 202.523438 C 96.628906 203.246094 96.085938 204.105469 96.183594 205.539062 L 96.183594 212.746094 Z M 189.234375 213.003906 L 189.234375 219.96875 C 189.242188 220.464844 189.277344 220.957031 189.332031 221.449219 C 189.355469 221.785156 189.476562 222.082031 189.695312 222.339844 C 189.914062 222.59375 190.1875 222.757812 190.519531 222.832031 C 191.375 223.082031 192.246094 223.230469 193.136719 223.277344 C 193.632812 223.328125 193.730469 223.523438 193.78125 223.921875 L 193.78125 224.265625 C 193.730469 225.996094 193.535156 226.195312 191.851562 226.097656 C 188.09375 225.851562 184.34375 225.898438 180.585938 226.097656 L 179.140625 226.148438 C 178.84375 226.148438 178.777344 226.003906 178.695312 225.800781 C 178.550781 225.109375 178.550781 224.417969 178.695312 223.726562 C 178.746094 223.429688 178.941406 223.363281 179.238281 223.28125 C 179.960938 223.183594 180.574219 223.035156 181.261719 222.917969 C 182.5 222.625 182.945312 222.125 182.992188 220.84375 L 183.136719 216.699219 L 183.136719 204.550781 C 183.136719 203.660156 182.789062 203.117188 182 202.71875 C 181.109375 202.226562 180.171875 201.882812 179.179688 201.535156 C 178.882812 201.4375 178.585938 201.335938 178.339844 201.1875 C 177.699219 200.742188 177.617188 200.105469 178.242188 199.609375 C 178.53125 199.375 178.859375 199.242188 179.230469 199.210938 C 182.394531 198.714844 185.457031 198.027344 188.421875 196.839844 C 188.769531 196.695312 188.917969 196.789062 189.066406 197.085938 C 189.214844 197.382812 189.265625 197.730469 189.210938 198.074219 L 189.066406 200.394531 C 189.066406 200.691406 188.921875 201.117188 189.164062 201.230469 C 189.460938 201.429688 189.660156 200.984375 189.90625 200.871094 C 191.371094 199.640625 192.96875 198.621094 194.699219 197.808594 C 196.230469 197.085938 197.808594 196.625 199.589844 196.726562 C 202.902344 196.925781 205.273438 198.605469 206.804688 201.515625 C 207.601562 203.050781 207.941406 204.726562 208.089844 206.457031 L 208.234375 210.070312 L 208.285156 220.984375 C 208.335938 221.820312 208.628906 222.367188 209.46875 222.664062 C 210.339844 222.953125 211.230469 223.167969 212.136719 223.304688 C 212.933594 223.402344 212.976562 223.550781 213.027344 224.292969 L 213.027344 224.539062 C 212.929688 226.21875 212.828125 226.265625 211.148438 226.164062 C 207.457031 225.96875 203.769531 225.96875 200.078125 226.164062 C 199.582031 226.214844 199.09375 226.164062 198.632812 226.214844 C 198.335938 226.214844 198.136719 226.164062 198.089844 225.867188 C 197.992188 225.226562 197.890625 224.585938 198.039062 223.890625 C 198.089844 223.59375 198.238281 223.445312 198.582031 223.398438 L 200.859375 223.035156 C 201.65625 222.835938 202.097656 222.3125 202.199219 221.589844 L 202.296875 220.207031 L 202.246094 209.886719 C 202.246094 208.699219 202.195312 207.515625 201.949219 206.332031 C 201.355469 203.800781 199.429688 201.996094 196.8125 201.742188 C 194.535156 201.496094 192.476562 202.089844 190.585938 203.320312 C 189.648438 203.914062 189.25 204.75 189.25 205.789062 L 189.25 213.246094 C 189.25 213.101562 189.25 213.101562 189.300781 213.101562 Z M 189.234375 213.003906 " fill-opacity="1" fill-rule="nonzero"/><path fill="#c2bfbf" d="M 333.949219 199.027344 C 333.40625 195.421875 332.070312 192.210938 329.75 189.398438 C 327.691406 186.871094 325.15625 184.992188 322.136719 183.769531 C 319.027344 182.484375 315.710938 182.085938 312.351562 181.988281 C 310.96875 181.941406 292.09375 182.234375 290.707031 181.988281 C 290.363281 181.941406 290.117188 182.039062 289.914062 182.335938 C 289.667969 182.699219 289.417969 183.078125 289.269531 183.472656 C 288.675781 184.808594 288.675781 184.707031 290.109375 184.902344 C 291.292969 185.101562 292.429688 185.199219 293.570312 185.546875 C 294.605469 185.894531 295.347656 186.484375 295.59375 187.621094 C 295.691406 188.160156 295.792969 205.542969 295.792969 213.644531 L 295.59375 219.425781 C 295.542969 219.871094 295.496094 220.3125 295.347656 220.707031 C 295.148438 221.300781 294.804688 221.792969 294.210938 222.046875 C 293.554688 222.355469 292.863281 222.535156 292.136719 222.585938 C 290.800781 222.730469 290.605469 222.785156 290.160156 224.265625 L 290.015625 224.808594 C 289.917969 225.453125 289.964844 225.550781 290.609375 225.550781 L 305.382812 225.695312 L 311.167969 225.597656 L 315.167969 225.101562 C 319.714844 224.265625 323.769531 222.386719 327.226562 219.375 C 329.21875 217.613281 330.800781 215.539062 331.96875 213.152344 C 333.355469 210.386719 333.945312 207.371094 334.09375 204.3125 C 334.339844 202.585938 334.238281 200.808594 333.949219 199.03125 Z M 326.785156 206.039062 C 326.585938 209.199219 325.945312 212.261719 324.3125 215.023438 C 322.238281 218.628906 319.273438 221.148438 315.171875 222.035156 C 313.394531 222.394531 311.617188 222.578125 309.75 222.332031 C 308.410156 222.1875 307.132812 222.035156 305.894531 221.589844 C 303.671875 220.796875 302.878906 219.421875 302.832031 217.253906 L 302.78125 187.480469 C 302.78125 185.699219 303.578125 185.3125 304.859375 185.257812 C 306.785156 185.113281 308.761719 185.160156 310.691406 185.355469 C 312.75 185.554688 314.746094 186.035156 316.671875 186.800781 C 318.101562 187.394531 319.40625 188.203125 320.574219 189.21875 C 323.242188 191.496094 325.023438 194.351562 326 197.710938 C 326.792969 200.429688 326.9375 203.195312 326.792969 205.957031 Z M 375.019531 210.878906 C 375.019531 210.582031 375.019531 210.335938 374.96875 210.042969 C 374.523438 207.324219 373.085938 205.25 370.867188 203.671875 C 369.4375 202.632812 367.804688 201.945312 366.125 201.449219 C 365.828125 201.351562 365.582031 201.25 365.285156 201.203125 C 365.335938 200.957031 365.484375 200.90625 365.632812 200.855469 C 366.617188 200.359375 367.558594 199.820312 368.398438 199.078125 C 369.929688 197.796875 370.929688 196.210938 371.460938 194.285156 C 371.757812 193.25 371.757812 192.210938 371.660156 191.125 C 371.578125 189.835938 371.21875 188.628906 370.585938 187.503906 C 369.957031 186.378906 369.109375 185.445312 368.050781 184.703125 C 365.773438 183.023438 363.109375 182.332031 360.34375 182.28125 C 355.003906 182.183594 349.621094 182.28125 344.289062 182.28125 C 342.753906 182.28125 341.226562 182.378906 339.640625 182.136719 C 339.34375 182.085938 338.917969 181.992188 338.703125 182.335938 C 338.339844 182.980469 337.90625 183.621094 337.761719 184.359375 C 337.710938 184.707031 337.8125 184.902344 338.207031 184.953125 L 341.617188 185.449219 C 342.953125 185.648438 343.894531 186.386719 343.988281 187.574219 C 344.085938 188.394531 344.132812 189.214844 344.132812 190.039062 L 344.035156 199.273438 L 343.984375 217.542969 C 343.984375 218.625 343.839844 219.667969 343.636719 220.75 C 343.585938 221.101562 343.445312 221.414062 343.214844 221.679688 C 342.980469 221.949219 342.695312 222.132812 342.351562 222.234375 C 341.367188 222.53125 340.425781 222.824219 339.386719 222.824219 C 339.101562 222.796875 338.839844 222.863281 338.601562 223.019531 C 338.359375 223.175781 338.195312 223.390625 338.105469 223.664062 C 337.90625 224.109375 337.742188 224.605469 337.660156 225.046875 C 337.5625 225.640625 337.710938 225.84375 338.304688 225.769531 C 338.75 225.71875 355.054688 226.117188 358.117188 225.820312 C 359.949219 225.621094 361.734375 225.375 363.550781 224.835938 C 366.664062 223.847656 369.53125 222.414062 371.804688 219.992188 C 373.683594 218.015625 374.769531 215.644531 374.867188 212.882812 C 375.011719 212.238281 375.011719 211.597656 375.011719 210.90625 Z M 351.054688 190.644531 L 351.199219 186.695312 C 351.199219 185.953125 351.492188 185.609375 352.234375 185.460938 C 353.421875 185.214844 354.605469 185.316406 355.792969 185.363281 C 356.980469 185.460938 358.113281 185.605469 359.300781 185.953125 C 361.46875 186.597656 363.15625 187.832031 364.144531 189.902344 C 364.601562 190.855469 364.832031 191.859375 364.835938 192.917969 C 364.886719 194.300781 364.785156 195.632812 364.242188 196.964844 C 363.40625 198.792969 362.074219 199.976562 360.144531 200.324219 C 358.210938 200.671875 352.730469 200.523438 351.890625 200.523438 C 351.152344 200.523438 351.097656 200.425781 351.097656 199.683594 L 351.097656 195.035156 C 350.980469 193.585938 350.964844 192.136719 351.046875 190.6875 Z M 367.105469 217.210938 C 366.269531 219.433594 364.734375 220.96875 362.5625 221.800781 C 361.375 222.242188 360.191406 222.523438 358.945312 222.441406 C 357.414062 222.390625 355.882812 222.441406 354.355469 222.144531 C 352.277344 221.703125 351.339844 219.726562 351.191406 218.292969 C 350.945312 215.777344 351.09375 213.207031 351.046875 211.332031 L 351.046875 204.8125 C 351.046875 204.019531 351.144531 203.777344 351.984375 203.777344 L 356.632812 203.824219 L 359.796875 204.1875 C 362.019531 204.683594 364.042969 205.523438 365.628906 207.25 C 366.910156 208.632812 367.605469 210.308594 367.753906 212.136719 C 367.898438 213.863281 367.804688 215.542969 367.160156 217.175781 Z M 367.105469 217.210938 " fill-opacity="1" fill-rule="nonzero"/><path fill="#47474a" d="M 241.566406 202.332031 L 242.851562 202.53125 C 244.234375 202.582031 245.867188 202.089844 246.359375 200.164062 C 246.632812 199.222656 246.632812 198.28125 246.359375 197.34375 C 246.0625 197.34375 245.914062 197.589844 245.765625 197.691406 C 245.023438 198.28125 244.183594 198.628906 243.296875 198.726562 C 241.515625 198.925781 239.738281 198.824219 238.007812 198.1875 L 235.585938 197.347656 C 233.882812 196.789062 232.132812 196.5625 230.34375 196.660156 C 227.824219 196.859375 225.453125 197.699219 223.226562 198.882812 C 220.855469 200.164062 219.179688 202.089844 218.382812 204.710938 C 217.9375 206.242188 217.886719 207.820312 218.085938 209.402344 C 218.582031 213.007812 220.457031 215.527344 223.816406 216.859375 C 224.015625 216.910156 224.164062 217.003906 224.359375 217.058594 C 224.804688 217.304688 224.855469 217.554688 224.457031 217.898438 L 223.21875 218.734375 L 220.253906 220.5625 C 219.515625 221.007812 219.417969 221.359375 219.664062 222.144531 C 219.960938 223.082031 220.488281 223.875 221.242188 224.511719 C 221.925781 225.097656 222.683594 225.558594 223.515625 225.898438 C 224.058594 226.144531 224.058594 226.257812 223.566406 226.691406 L 220.746094 228.714844 C 219.808594 229.4375 218.867188 230.160156 218.078125 231.085938 C 217.523438 231.679688 217.136719 232.371094 216.929688 233.160156 C 216.71875 233.945312 216.707031 234.738281 216.890625 235.53125 C 217.269531 237.289062 218.125 238.769531 219.460938 239.976562 C 220.765625 241.183594 222.28125 242.003906 224.003906 242.441406 C 226.769531 243.238281 229.636719 243.28125 232.453125 242.738281 C 236.503906 242 240.046875 240.210938 242.832031 237.160156 C 244.757812 235.136719 245.894531 232.765625 245.996094 229.933594 C 246.023438 229.527344 246.015625 229.121094 245.96875 228.714844 C 245.925781 228.3125 245.84375 227.914062 245.730469 227.523438 C 245.613281 227.132812 245.464844 226.753906 245.285156 226.390625 C 245.105469 226.023438 244.890625 225.679688 244.648438 225.351562 C 244.40625 225.023438 244.136719 224.71875 243.84375 224.441406 C 243.546875 224.160156 243.226562 223.90625 242.886719 223.683594 C 242.546875 223.460938 242.191406 223.265625 241.816406 223.105469 C 241.441406 222.945312 241.054688 222.816406 240.660156 222.722656 L 237.992188 222.230469 L 229.835938 221.507812 C 228.949219 221.457031 228.058594 221.308594 227.316406 220.863281 C 226.375 220.269531 226.132812 219.136719 226.722656 218.394531 C 227.167969 217.855469 227.710938 217.507812 228.40625 217.457031 L 229.984375 217.3125 C 231.546875 217.152344 233.042969 216.746094 234.472656 216.097656 C 235.902344 215.445312 237.1875 214.585938 238.335938 213.511719 C 239.582031 212.355469 240.421875 210.957031 240.855469 209.3125 C 241.449219 207.1875 241.449219 204.976562 240.953125 202.808594 C 240.808594 202.265625 240.855469 202.214844 241.546875 202.3125 Z M 229.453125 226.929688 C 229.75 226.980469 230.046875 226.929688 230.34375 226.929688 C 232.417969 227.027344 234.542969 227.175781 236.570312 227.726562 C 237.230469 227.921875 237.875 228.167969 238.496094 228.464844 C 240.476562 229.550781 241.214844 231.429688 240.964844 233.453125 C 240.671875 235.675781 239.433594 237.253906 237.507812 238.296875 C 236.222656 239.019531 234.785156 239.332031 233.304688 239.480469 C 232.761719 239.53125 232.265625 239.480469 231.722656 239.480469 C 229.996094 239.53125 228.316406 239.335938 226.683594 238.640625 C 225.546875 238.199219 224.609375 237.558594 223.769531 236.664062 C 222.042969 234.9375 221.238281 231.777344 223.820312 229.207031 C 225.402344 227.761719 227.183594 226.738281 229.453125 226.929688 Z M 235.085938 211.523438 C 234.050781 214.140625 231.773438 214.929688 229.503906 214.582031 C 227.429688 214.289062 225.894531 213.152344 224.914062 211.273438 C 223.628906 208.753906 223.285156 206.140625 224.023438 203.421875 C 224.566406 201.398438 225.800781 199.867188 227.976562 199.519531 C 230.742188 199.023438 233.398438 200.015625 234.792969 202.777344 C 235.515625 204.117188 235.832031 205.742188 235.832031 208.0625 C 235.78125 209 235.585938 210.285156 235.089844 211.519531 Z M 172.832031 208.164062 C 172.386719 205.496094 171.398438 203.074219 169.570312 201.050781 C 166.851562 198.039062 163.394531 196.714844 159.488281 196.703125 C 156.078125 196.652344 152.871094 197.644531 150 199.421875 C 148.589844 200.265625 147.382812 201.339844 146.386719 202.644531 C 145.386719 203.949219 144.664062 205.394531 144.21875 206.976562 C 143.378906 209.84375 143.421875 212.757812 144.074219 215.667969 C 145.800781 223.472656 151.832031 226.824219 159.042969 226.335938 C 161.167969 226.191406 163.195312 225.496094 165.117188 224.554688 C 167.984375 223.21875 170.0625 221.097656 171.492188 218.285156 C 172.628906 215.964844 173.121094 213.492188 173.074219 210.675781 L 172.828125 208.160156 Z M 165.816406 219.125 C 165.640625 219.679688 165.386719 220.199219 165.058594 220.683594 C 164.730469 221.164062 164.339844 221.589844 163.886719 221.957031 C 163.4375 222.324219 162.941406 222.621094 162.402344 222.847656 C 161.863281 223.070312 161.304688 223.210938 160.726562 223.273438 C 158.554688 223.570312 156.523438 223.027344 154.699219 221.742188 C 153.359375 220.757812 152.320312 219.523438 151.585938 218.039062 C 149.558594 213.890625 149.210938 209.546875 150.246094 205.101562 C 150.585938 203.699219 151.277344 202.496094 152.320312 201.496094 C 154.152344 199.816406 156.273438 199.421875 158.648438 199.917969 C 160.925781 200.410156 162.652344 201.644531 164.074219 203.523438 C 165.492188 205.402344 166.148438 207.570312 166.542969 209.847656 C 166.742188 210.980469 166.742188 212.167969 166.789062 212.90625 C 166.789062 215.277344 166.589844 217.242188 165.847656 219.128906 Z M 280.796875 208.558594 C 280.4375 205.695312 279.367188 203.078125 277.335938 200.90625 C 274.667969 197.992188 271.207031 196.757812 267.359375 196.707031 C 264.046875 196.65625 260.984375 197.597656 258.167969 199.226562 C 255.003906 201.105469 252.828125 203.769531 251.992188 207.375 C 251.488281 209.339844 251.339844 211.335938 251.546875 213.355469 C 251.75 215.375 252.292969 217.296875 253.175781 219.125 C 254.804688 222.582031 257.574219 224.804688 261.234375 225.792969 C 265.28125 226.875 269.140625 226.386719 272.894531 224.554688 C 276.15625 222.976562 278.476562 220.507812 279.8125 217.148438 C 280.605469 215.171875 280.894531 213.050781 280.945312 210.578125 C 280.996094 210.136719 280.894531 209.34375 280.800781 208.554688 Z M 273.980469 218.484375 C 273.183594 221.152344 271.507812 222.878906 268.691406 223.277344 C 266.617188 223.574219 264.644531 223.078125 262.859375 221.894531 C 261.328125 220.855469 260.242188 219.472656 259.449219 217.847656 C 258.5625 216.121094 258.066406 214.289062 257.871094 212.414062 C 257.574219 210.09375 257.574219 207.828125 258.117188 205.503906 C 258.21875 205.042969 258.367188 204.597656 258.5625 204.167969 C 259.945312 200.710938 263.007812 199.132812 266.617188 199.921875 C 269.039062 200.464844 270.867188 201.800781 272.25 203.828125 C 273.589844 205.804688 274.226562 207.972656 274.527344 210.332031 C 274.671875 211.269531 274.726562 212.257812 274.671875 213.09375 C 274.671875 215.019531 274.527344 216.796875 273.949219 218.527344 Z M 273.980469 218.484375 " fill-opacity="1" fill-rule="nonzero"/></svg>